<svg width="196" height="124" viewBox="0 0 196 124" fill="none" xmlns="http://www.w3.org/2000/svg">
<path fill-rule="evenodd" clip-rule="evenodd" d="M54.4577 16.8171C38.8344 6.00544 17.3804 9.76692 6.37896 25.3134C-4.69379 40.9607 -0.985022 62.621 14.6628 73.693L70.266 113.037L74.3095 107.323L74.311 107.324L74.4416 107.416L79.6232 100.057L88.7068 87.1568L84.235 77.8753L72.2646 94.8752L72.1497 94.7943L68.118 100.492L19.8612 66.3462C8.27113 58.1453 5.52411 42.102 13.7256 30.5122C21.9272 18.9222 37.9719 16.1749 49.5623 24.376L54.7602 17.0301L49.5623 24.3761L49.9484 24.6492L57.3121 29.8596L62.5056 22.484L64.7675 19.2718C71.3431 9.93322 83.5709 6.64323 93.9453 10.7172C98.336 9.0742 102.887 8.38004 107.353 8.54856C106.409 7.71063 105.409 6.91782 104.355 6.17566C89.4618 -4.31154 68.7141 -1.14038 57.9105 13.3966C57.7408 13.625 57.5735 13.8562 57.4087 14.0902L55.1469 17.3024L54.7608 17.0292C54.66 16.9579 54.5589 16.8872 54.4577 16.8171ZM112.728 53.0428C116.808 47.2489 118.753 40.5806 118.751 33.9593C116.353 30.6765 112.821 28.5281 108.978 27.8018C110.68 34.5164 109.591 41.8654 105.369 47.8612L96.7571 60.0917L101.229 69.3733L112.728 53.0428ZM97.0091 15.9712C114.167 7.70544 134.756 14.8141 143.181 31.8435C143.235 31.9539 143.289 32.0647 143.343 32.1759L143.548 32.602L147.084 30.8887C147.341 30.7639 147.6 30.6427 147.859 30.5252C164.355 23.0465 184.039 30.3292 191.983 46.7211C200.052 63.3705 193.239 83.7043 176.59 91.773L124.846 116.849L116.747 120.774L116.677 120.631L116.677 120.629L110.37 123.667L80.8051 62.3031C72.4849 45.0341 79.7397 24.2906 97.0091 15.9712ZM135.235 36.0824L143.342 32.1764L135.235 36.0824L135.44 36.5085L139.356 44.635L147.473 40.701L151.009 38.9877C163.083 33.1363 177.933 38.3665 183.884 50.6461C189.835 62.9257 184.739 77.8226 172.665 83.674L120.921 108.75L120.86 108.624L114.572 111.653L88.9131 58.3967C82.7505 45.6057 88.1239 30.2415 100.915 24.0794C113.707 17.9172 129.072 23.2911 135.235 36.0824Z" fill="black"/>
</svg>
