<svg width="199" height="172" viewBox="0 0 199 172" fill="none" xmlns="http://www.w3.org/2000/svg">
<path fill-rule="evenodd" clip-rule="evenodd" d="M9.63104 25.3134C20.6325 9.76692 42.0864 6.00544 57.7097 16.8171C57.811 16.8872 57.9121 16.9579 58.0129 17.0292L58.3989 17.3024L60.6608 14.0902C60.8256 13.8562 60.9928 13.625 61.1626 13.3966C71.9661 -1.14038 92.7139 -4.31154 107.607 6.17566C108.661 6.91782 109.661 7.71063 110.605 8.54856C106.139 8.38004 101.588 9.0742 97.1974 10.7172C86.8229 6.64323 74.5952 9.93322 68.0195 19.2718L65.7577 22.484L60.5642 29.8596L53.2005 24.6492L52.8144 24.3761L58.0122 17.0301L52.8144 24.376C41.224 16.1749 25.1793 18.9222 16.9776 30.5122C8.77618 42.102 11.5232 58.1453 23.1133 66.3462L71.3701 100.492L75.4018 94.7943L75.5166 94.8752L87.487 77.8753L91.9589 87.1568L82.8753 100.057L77.6937 107.416L77.5631 107.324L77.5616 107.323L73.5181 113.037L17.9148 73.693C2.26705 62.621 -1.44172 40.9607 9.63104 25.3134ZM122.003 33.9593C122.005 40.5806 120.06 47.2489 115.98 53.0428L104.481 69.3733L100.009 60.0917L108.621 47.8612C112.843 41.8654 113.932 34.5164 112.23 27.8018C116.073 28.5281 119.605 30.6765 122.003 33.9593ZM146.433 31.8435C138.008 14.8141 117.419 7.70544 100.261 15.9712C82.9918 24.2906 75.737 45.0341 84.0572 62.3031L113.622 123.667L119.929 120.629L119.929 120.631L119.999 120.774L128.098 116.849L179.842 91.773C196.491 83.7043 203.304 63.3705 195.235 46.7211C187.291 30.3292 167.607 23.0465 151.111 30.5252C150.852 30.6427 150.593 30.7639 150.336 30.8887L146.8 32.602L146.595 32.1759C146.542 32.0647 146.487 31.9539 146.433 31.8435ZM146.594 32.1764L138.487 36.0824C132.324 23.2911 116.959 17.9172 104.167 24.0794C91.376 30.2415 86.0026 45.6057 92.1652 58.3967L117.824 111.653L124.112 108.624L124.173 108.75L175.917 83.674C187.991 77.8226 193.087 62.9257 187.136 50.6461C181.185 38.3665 166.335 33.1363 154.261 38.9877L150.725 40.701L142.608 44.635L138.692 36.5085L138.487 36.0824L146.594 32.1764ZM28.15 146.142C29.3167 143.008 30.5333 139.608 31.8 135.942H26.6C24.8333 141.208 23.0833 146.292 21.35 151.192C19.6167 156.058 17.8333 160.608 16 164.842C14.1667 160.575 12.3833 156.008 10.65 151.142C8.91667 146.275 7.15 141.208 5.35 135.942H0C1.23333 139.608 2.43333 143.008 3.6 146.142C4.76667 149.242 5.9 152.192 7 154.992C8.13333 157.792 9.23333 160.475 10.3 163.042C11.4 165.575 12.5167 168.092 13.65 170.592H18.2C19.3333 168.092 20.4333 165.575 21.5 163.042C22.6 160.475 23.7 157.792 24.8 154.992C25.9 152.192 27.0167 149.242 28.15 146.142ZM36.3125 170.592H40.9625V144.592H36.3125V170.592ZM36.4625 139.092C37.0625 139.625 37.7792 139.892 38.6125 139.892C39.4458 139.892 40.1458 139.625 40.7125 139.092C41.3125 138.525 41.6125 137.775 41.6125 136.842C41.6125 135.908 41.3125 135.175 40.7125 134.642C40.1458 134.075 39.4458 133.792 38.6125 133.792C37.7792 133.792 37.0625 134.075 36.4625 134.642C35.8958 135.175 35.6125 135.908 35.6125 136.842C35.6125 137.775 35.8958 138.525 36.4625 139.092ZM60.159 143.992C58.659 143.992 57.3257 144.192 56.159 144.592C55.0257 144.992 54.1757 145.375 53.609 145.742V131.792L48.959 132.592V169.842C50.0257 170.142 51.3923 170.442 53.059 170.742C54.7257 171.042 56.6423 171.192 58.809 171.192C60.809 171.192 62.609 170.875 64.209 170.242C65.809 169.608 67.1757 168.708 68.309 167.542C69.4423 166.375 70.309 164.958 70.909 163.292C71.5423 161.592 71.859 159.692 71.859 157.592C71.859 155.592 71.5923 153.758 71.059 152.092C70.559 150.425 69.809 148.992 68.809 147.792C67.809 146.592 66.5757 145.658 65.109 144.992C63.6757 144.325 62.0257 143.992 60.159 143.992ZM64.759 164.642C63.259 166.275 61.259 167.092 58.759 167.092C57.4923 167.092 56.4257 167.042 55.559 166.942C54.7257 166.808 54.0757 166.675 53.609 166.542V150.092C54.1757 149.625 54.9923 149.175 56.059 148.742C57.1257 148.308 58.2923 148.092 59.559 148.092C60.8923 148.092 62.0257 148.342 62.959 148.842C63.9257 149.308 64.709 149.975 65.309 150.842C65.909 151.675 66.3423 152.675 66.609 153.842C66.8756 155.008 67.009 156.258 67.009 157.592C67.009 160.625 66.259 162.975 64.759 164.642ZM77.9523 151.642C77.2857 153.342 76.9523 155.342 76.9523 157.642C76.9523 159.608 77.2023 161.425 77.7023 163.092C78.2357 164.725 79.0357 166.142 80.1023 167.342C81.169 168.542 82.519 169.492 84.1523 170.192C85.819 170.858 87.7857 171.192 90.0523 171.192C91.8523 171.192 93.4523 171.025 94.8523 170.692C96.2857 170.358 97.2857 170.042 97.8523 169.742L97.2023 165.842C96.6357 166.108 95.7857 166.392 94.6523 166.692C93.5523 166.958 92.1857 167.092 90.5523 167.092C87.6523 167.092 85.519 166.392 84.1523 164.992C82.7857 163.592 82.0023 161.542 81.8023 158.842H99.6023C99.6357 158.575 99.6523 158.292 99.6523 157.992V157.192C99.6523 152.725 98.719 149.408 96.8523 147.242C94.9857 145.042 92.3023 143.942 88.8023 143.942C87.3023 143.942 85.8357 144.225 84.4023 144.792C82.969 145.358 81.7023 146.208 80.6023 147.342C79.5023 148.475 78.619 149.908 77.9523 151.642ZM93.2023 149.942C94.3023 151.275 94.8357 152.992 94.8023 155.092H81.9023C82.0023 154.192 82.2023 153.308 82.5023 152.442C82.8357 151.575 83.2857 150.808 83.8523 150.142C84.419 149.475 85.1023 148.942 85.9023 148.542C86.7357 148.108 87.6857 147.892 88.7523 147.892C90.6523 147.892 92.1357 148.575 93.2023 149.942ZM124.582 162.392C125.649 165.458 126.649 168.192 127.582 170.592H131.632C133.165 167.158 134.665 163.242 136.132 158.842C137.599 154.442 138.982 149.692 140.282 144.592H135.482C135.149 146.158 134.749 147.858 134.282 149.692C133.815 151.525 133.315 153.358 132.782 155.192C132.249 157.025 131.699 158.792 131.132 160.492C130.599 162.192 130.082 163.675 129.582 164.942C129.015 163.375 128.449 161.725 127.882 159.992C127.349 158.225 126.832 156.458 126.332 154.692C125.832 152.892 125.365 151.142 124.932 149.442C124.499 147.708 124.132 146.092 123.832 144.592H119.982C119.649 146.092 119.249 147.708 118.782 149.442C118.349 151.142 117.882 152.892 117.382 154.692C116.882 156.458 116.349 158.225 115.782 159.992C115.249 161.725 114.699 163.375 114.132 164.942C113.632 163.675 113.099 162.192 112.532 160.492C111.965 158.792 111.415 157.025 110.882 155.192C110.382 153.358 109.899 151.525 109.432 149.692C108.965 147.858 108.565 146.158 108.232 144.592H103.232C104.532 149.692 105.915 154.442 107.382 158.842C108.849 163.242 110.349 167.158 111.882 170.592H115.932C116.865 168.192 117.849 165.458 118.882 162.392C119.915 159.292 120.865 156.075 121.732 152.742C122.599 156.075 123.549 159.292 124.582 162.392ZM145.199 170.592H149.849V144.592H145.199V170.592ZM145.349 139.092C145.949 139.625 146.666 139.892 147.499 139.892C148.333 139.892 149.033 139.625 149.599 139.092C150.199 138.525 150.499 137.775 150.499 136.842C150.499 135.908 150.199 135.175 149.599 134.642C149.033 134.075 148.333 133.792 147.499 133.792C146.666 133.792 145.949 134.075 145.349 134.642C144.783 135.175 144.499 135.908 144.499 136.842C144.499 137.775 144.783 138.525 145.349 139.092ZM168.796 144.142C168.296 144.075 167.846 144.042 167.446 144.042C165.412 144.042 163.579 144.225 161.946 144.592C160.312 144.925 158.946 145.292 157.846 145.692V170.592H162.496V148.742C162.762 148.675 163.312 148.558 164.146 148.392C165.012 148.192 165.879 148.092 166.746 148.092C168.079 148.092 169.162 148.192 169.996 148.392C170.862 148.558 171.479 148.708 171.846 148.842L172.646 144.792C172.446 144.725 172.129 144.658 171.696 144.592C171.296 144.492 170.846 144.408 170.346 144.342C169.846 144.242 169.329 144.175 168.796 144.142ZM176.683 151.642C176.016 153.342 175.683 155.342 175.683 157.642C175.683 159.608 175.933 161.425 176.433 163.092C176.966 164.725 177.766 166.142 178.833 167.342C179.899 168.542 181.249 169.492 182.883 170.192C184.549 170.858 186.516 171.192 188.783 171.192C190.583 171.192 192.183 171.025 193.583 170.692C195.016 170.358 196.016 170.042 196.583 169.742L195.933 165.842C195.366 166.108 194.516 166.392 193.383 166.692C192.283 166.958 190.916 167.092 189.283 167.092C186.383 167.092 184.249 166.392 182.883 164.992C181.516 163.592 180.733 161.542 180.533 158.842H198.333C198.366 158.575 198.383 158.292 198.383 157.992V157.192C198.383 152.725 197.449 149.408 195.583 147.242C193.716 145.042 191.033 143.942 187.533 143.942C186.033 143.942 184.566 144.225 183.133 144.792C181.699 145.358 180.433 146.208 179.333 147.342C178.233 148.475 177.349 149.908 176.683 151.642ZM191.933 149.942C193.033 151.275 193.566 152.992 193.533 155.092H180.633C180.733 154.192 180.933 153.308 181.233 152.442C181.566 151.575 182.016 150.808 182.583 150.142C183.149 149.475 183.833 148.942 184.633 148.542C185.466 148.108 186.416 147.892 187.483 147.892C189.383 147.892 190.866 148.575 191.933 149.942Z" fill="black"/>
</svg>
