<svg width="199" height="211" viewBox="0 0 199 211" fill="none" xmlns="http://www.w3.org/2000/svg">
<path fill-rule="evenodd" clip-rule="evenodd" d="M57.7098 16.8171C42.0865 6.00544 20.6325 9.76692 9.63107 25.3134C-1.44169 40.9607 2.26708 62.621 17.9149 73.693L73.5181 113.037L77.5616 107.323L77.5631 107.324L77.6937 107.416L82.8753 100.057L91.9589 87.1568L87.4871 77.8753L75.5167 94.8752L75.4018 94.7943L71.3701 100.492L23.1133 66.3462C11.5232 58.1453 8.77621 42.102 16.9777 30.5122C25.1793 18.9222 41.2241 16.1749 52.8144 24.376L58.0123 17.0301L52.8145 24.3761L53.2005 24.6492L60.5642 29.8596L65.7577 22.484L68.0196 19.2718C74.5953 9.93322 86.823 6.64323 97.1974 10.7172C101.588 9.0742 106.139 8.38004 110.605 8.54856C109.661 7.71063 108.661 6.91782 107.608 6.17566C92.714 -4.31154 71.9662 -1.14038 61.1626 13.3966C60.9929 13.625 60.8256 13.8562 60.6608 14.0902L58.399 17.3024L58.0129 17.0292C57.9121 16.9579 57.8111 16.8872 57.7098 16.8171ZM115.98 53.0428C120.06 47.2489 122.005 40.5806 122.003 33.9593C119.605 30.6765 116.073 28.5281 112.23 27.8018C113.932 34.5164 112.843 41.8654 108.621 47.8612L100.009 60.0917L104.481 69.3733L115.98 53.0428ZM100.261 15.9712C117.419 7.70544 138.008 14.8141 146.433 31.8435C146.487 31.9539 146.542 32.0647 146.595 32.1759L146.8 32.602L150.336 30.8887C150.593 30.7639 150.852 30.6427 151.111 30.5252C167.607 23.0465 187.291 30.3292 195.235 46.7211C203.304 63.3705 196.491 83.7043 179.842 91.773L128.098 116.849L119.999 120.774L119.929 120.631L119.929 120.629L113.622 123.667L84.0572 62.3031C75.7371 45.0341 82.9918 24.2906 100.261 15.9712ZM138.487 36.0824L146.594 32.1764L138.487 36.0824L138.692 36.5085L142.608 44.635L150.725 40.701L154.261 38.9877C166.335 33.1363 181.185 38.3665 187.136 50.6461C193.087 62.9257 187.991 77.8226 175.917 83.674L124.173 108.75L124.112 108.624L117.824 111.653L92.1652 58.3967C86.0026 45.6057 91.3761 30.2415 104.167 24.0794C116.959 17.9172 132.324 23.2911 138.487 36.0824ZM31.8 135.942C30.5333 139.608 29.3167 143.008 28.15 146.142C27.0167 149.242 25.9 152.192 24.8 154.992C23.7 157.792 22.6 160.475 21.5 163.042C20.4333 165.575 19.3333 168.092 18.2 170.592H13.65C12.5167 168.092 11.4 165.575 10.3 163.042C9.23333 160.475 8.13333 157.792 7 154.992C5.9 152.192 4.76667 149.242 3.6 146.142C2.43333 143.008 1.23333 139.608 0 135.942H5.35C7.15 141.208 8.91667 146.275 10.65 151.142C12.3833 156.008 14.1667 160.575 16 164.842C17.8333 160.608 19.6167 156.058 21.35 151.192C23.0833 146.292 24.8333 141.208 26.6 135.942H31.8ZM40.9625 170.592H36.3125V144.592H40.9625V170.592ZM38.6125 139.892C37.7792 139.892 37.0625 139.625 36.4625 139.092C35.8958 138.525 35.6125 137.775 35.6125 136.842C35.6125 135.908 35.8958 135.175 36.4625 134.642C37.0625 134.075 37.7792 133.792 38.6125 133.792C39.4458 133.792 40.1458 134.075 40.7125 134.642C41.3125 135.175 41.6125 135.908 41.6125 136.842C41.6125 137.775 41.3125 138.525 40.7125 139.092C40.1458 139.625 39.4458 139.892 38.6125 139.892ZM56.159 144.592C57.3257 144.192 58.659 143.992 60.159 143.992C62.0257 143.992 63.6757 144.325 65.109 144.992C66.5757 145.658 67.809 146.592 68.809 147.792C69.809 148.992 70.559 150.425 71.059 152.092C71.5923 153.758 71.859 155.592 71.859 157.592C71.859 159.692 71.5423 161.592 70.909 163.292C70.309 164.958 69.4423 166.375 68.309 167.542C67.1757 168.708 65.809 169.608 64.209 170.242C62.609 170.875 60.809 171.192 58.809 171.192C56.6423 171.192 54.7257 171.042 53.059 170.742C51.3923 170.442 50.0257 170.142 48.959 169.842V132.592L53.609 131.792V145.742C54.1757 145.375 55.0257 144.992 56.159 144.592ZM53.609 166.542C54.0757 166.675 54.7257 166.808 55.559 166.942C56.4257 167.042 57.4923 167.092 58.759 167.092C61.259 167.092 63.259 166.275 64.759 164.642C66.259 162.975 67.009 160.625 67.009 157.592C67.009 156.258 66.8756 155.008 66.609 153.842C66.3423 152.675 65.909 151.675 65.309 150.842C64.709 149.975 63.9257 149.308 62.959 148.842C62.0257 148.342 60.8923 148.092 59.559 148.092C58.2923 148.092 57.1257 148.308 56.059 148.742C54.9923 149.175 54.1757 149.625 53.609 150.092V166.542ZM76.9523 157.642C76.9523 155.342 77.2857 153.342 77.9523 151.642C78.619 149.908 79.5023 148.475 80.6023 147.342C81.7023 146.208 82.969 145.358 84.4023 144.792C85.8357 144.225 87.3023 143.942 88.8023 143.942C92.3023 143.942 94.9857 145.042 96.8523 147.242C98.719 149.408 99.6523 152.725 99.6523 157.192V157.992C99.6523 158.292 99.6357 158.575 99.6023 158.842H81.8023C82.0023 161.542 82.7857 163.592 84.1523 164.992C85.519 166.392 87.6523 167.092 90.5523 167.092C92.1857 167.092 93.5523 166.958 94.6523 166.692C95.7857 166.392 96.6357 166.108 97.2023 165.842L97.8523 169.742C97.2857 170.042 96.2857 170.358 94.8523 170.692C93.4523 171.025 91.8523 171.192 90.0523 171.192C87.7857 171.192 85.819 170.858 84.1523 170.192C82.519 169.492 81.169 168.542 80.1023 167.342C79.0357 166.142 78.2357 164.725 77.7023 163.092C77.2023 161.425 76.9523 159.608 76.9523 157.642ZM94.8023 155.092C94.8357 152.992 94.3023 151.275 93.2023 149.942C92.1357 148.575 90.6523 147.892 88.7523 147.892C87.6857 147.892 86.7357 148.108 85.9023 148.542C85.1023 148.942 84.419 149.475 83.8523 150.142C83.2857 150.808 82.8357 151.575 82.5023 152.442C82.2023 153.308 82.0023 154.192 81.9023 155.092H94.8023ZM127.582 170.592C126.649 168.192 125.649 165.458 124.582 162.392C123.549 159.292 122.599 156.075 121.732 152.742C120.865 156.075 119.915 159.292 118.882 162.392C117.849 165.458 116.865 168.192 115.932 170.592H111.882C110.349 167.158 108.849 163.242 107.382 158.842C105.915 154.442 104.532 149.692 103.232 144.592H108.232C108.565 146.158 108.965 147.858 109.432 149.692C109.899 151.525 110.382 153.358 110.882 155.192C111.415 157.025 111.965 158.792 112.532 160.492C113.099 162.192 113.632 163.675 114.132 164.942C114.699 163.375 115.249 161.725 115.782 159.992C116.349 158.225 116.882 156.458 117.382 154.692C117.882 152.892 118.349 151.142 118.782 149.442C119.249 147.708 119.649 146.092 119.982 144.592H123.832C124.132 146.092 124.499 147.708 124.932 149.442C125.365 151.142 125.832 152.892 126.332 154.692C126.832 156.458 127.349 158.225 127.882 159.992C128.449 161.725 129.015 163.375 129.582 164.942C130.082 163.675 130.599 162.192 131.132 160.492C131.699 158.792 132.249 157.025 132.782 155.192C133.315 153.358 133.815 151.525 134.282 149.692C134.749 147.858 135.149 146.158 135.482 144.592H140.282C138.982 149.692 137.599 154.442 136.132 158.842C134.665 163.242 133.165 167.158 131.632 170.592H127.582ZM149.849 170.592H145.199V144.592H149.849V170.592ZM147.499 139.892C146.666 139.892 145.949 139.625 145.349 139.092C144.783 138.525 144.499 137.775 144.499 136.842C144.499 135.908 144.783 135.175 145.349 134.642C145.949 134.075 146.666 133.792 147.499 133.792C148.333 133.792 149.033 134.075 149.599 134.642C150.199 135.175 150.499 135.908 150.499 136.842C150.499 137.775 150.199 138.525 149.599 139.092C149.033 139.625 148.333 139.892 147.499 139.892ZM167.446 144.042C167.846 144.042 168.296 144.075 168.796 144.142C169.329 144.175 169.846 144.242 170.346 144.342C170.846 144.408 171.296 144.492 171.696 144.592C172.129 144.658 172.446 144.725 172.646 144.792L171.846 148.842C171.479 148.708 170.862 148.558 169.996 148.392C169.162 148.192 168.079 148.092 166.746 148.092C165.879 148.092 165.012 148.192 164.146 148.392C163.312 148.558 162.762 148.675 162.496 148.742V170.592H157.846V145.692C158.946 145.292 160.312 144.925 161.946 144.592C163.579 144.225 165.412 144.042 167.446 144.042ZM175.683 157.642C175.683 155.342 176.016 153.342 176.683 151.642C177.349 149.908 178.233 148.475 179.333 147.342C180.433 146.208 181.699 145.358 183.133 144.792C184.566 144.225 186.033 143.942 187.533 143.942C191.033 143.942 193.716 145.042 195.583 147.242C197.449 149.408 198.383 152.725 198.383 157.192V157.992C198.383 158.292 198.366 158.575 198.333 158.842H180.533C180.733 161.542 181.516 163.592 182.883 164.992C184.249 166.392 186.383 167.092 189.283 167.092C190.916 167.092 192.283 166.958 193.383 166.692C194.516 166.392 195.366 166.108 195.933 165.842L196.583 169.742C196.016 170.042 195.016 170.358 193.583 170.692C192.183 171.025 190.583 171.192 188.783 171.192C186.516 171.192 184.549 170.858 182.883 170.192C181.249 169.492 179.899 168.542 178.833 167.342C177.766 166.142 176.966 164.725 176.433 163.092C175.933 161.425 175.683 159.608 175.683 157.642ZM193.533 155.092C193.566 152.992 193.033 151.275 191.933 149.942C190.866 148.575 189.383 147.892 187.483 147.892C186.416 147.892 185.466 148.108 184.633 148.542C183.833 148.942 183.149 149.475 182.583 150.142C182.016 150.808 181.566 151.575 181.233 152.442C180.933 153.308 180.733 154.192 180.633 155.092H193.533ZM40.2 204.67C40.63 203.53 41.055 202.29 41.475 200.95C41.895 202.29 42.315 203.53 42.735 204.67C43.155 205.81 43.585 206.92 44.025 208H45.48C46 206.47 46.46 204.855 46.86 203.155C47.27 201.455 47.655 199.605 48.015 197.605H46.53C46.39 198.385 46.245 199.17 46.095 199.96C45.945 200.74 45.79 201.5 45.63 202.24C45.48 202.97 45.325 203.67 45.165 204.34C45.005 205.01 44.845 205.625 44.685 206.185C44.285 205.135 43.855 203.985 43.395 202.735C42.935 201.475 42.51 200.175 42.12 198.835H40.86C40.47 200.175 40.05 201.475 39.6 202.735C39.15 203.985 38.725 205.135 38.325 206.185C38.155 205.615 37.99 204.995 37.83 204.325C37.67 203.655 37.51 202.955 37.35 202.225C37.19 201.485 37.035 200.725 36.885 199.945C36.735 199.165 36.59 198.385 36.45 197.605H34.92C35.27 199.605 35.645 201.455 36.045 203.155C36.455 204.855 36.925 206.47 37.455 208H38.91C39.34 206.92 39.77 205.81 40.2 204.67ZM49.1587 202.315C48.9588 202.825 48.8587 203.425 48.8587 204.115C48.8587 204.705 48.9338 205.25 49.0838 205.75C49.2438 206.24 49.4837 206.665 49.8037 207.025C50.1237 207.385 50.5288 207.67 51.0187 207.88C51.5187 208.08 52.1087 208.18 52.7887 208.18C53.3288 208.18 53.8088 208.13 54.2287 208.03C54.6587 207.93 54.9588 207.835 55.1287 207.745L54.9338 206.575C54.7638 206.655 54.5088 206.74 54.1688 206.83C53.8387 206.91 53.4287 206.95 52.9388 206.95C52.0687 206.95 51.4287 206.74 51.0187 206.32C50.6087 205.9 50.3737 205.285 50.3138 204.475H55.6538C55.6637 204.395 55.6688 204.31 55.6688 204.22V203.98C55.6688 202.64 55.3888 201.645 54.8288 200.995C54.2687 200.335 53.4637 200.005 52.4137 200.005C51.9637 200.005 51.5238 200.09 51.0938 200.26C50.6637 200.43 50.2837 200.685 49.9538 201.025C49.6237 201.365 49.3587 201.795 49.1587 202.315ZM53.7337 201.805C54.0638 202.205 54.2238 202.72 54.2137 203.35H50.3438C50.3737 203.08 50.4338 202.815 50.5238 202.555C50.6237 202.295 50.7588 202.065 50.9287 201.865C51.0988 201.665 51.3037 201.505 51.5438 201.385C51.7938 201.255 52.0788 201.19 52.3988 201.19C52.9688 201.19 53.4137 201.395 53.7337 201.805ZM62.8693 207.88C63.3493 208.08 63.9043 208.18 64.5343 208.18C64.7343 208.18 64.9393 208.165 65.1493 208.135C65.3693 208.115 65.5743 208.085 65.7643 208.045C65.9543 208.015 66.1243 207.98 66.2743 207.94C66.4243 207.89 66.5393 207.84 66.6193 207.79L66.4243 206.62C66.2543 206.7 66.0193 206.775 65.7193 206.845C65.4193 206.915 65.0843 206.95 64.7143 206.95C64.2543 206.95 63.8643 206.885 63.5443 206.755C63.2243 206.615 62.9593 206.42 62.7493 206.17C62.5493 205.92 62.3993 205.62 62.2993 205.27C62.2093 204.92 62.1643 204.535 62.1643 204.115C62.1643 203.175 62.3693 202.46 62.7793 201.97C63.1993 201.48 63.7993 201.235 64.5793 201.235C64.8893 201.235 65.1793 201.265 65.4493 201.325C65.7293 201.385 65.9743 201.465 66.1843 201.565L66.4993 200.38C66.1793 200.25 65.8443 200.155 65.4943 200.095C65.1443 200.035 64.7943 200.005 64.4443 200.005C63.8743 200.005 63.3543 200.11 62.8843 200.32C62.4243 200.52 62.0343 200.805 61.7143 201.175C61.3943 201.535 61.1443 201.965 60.9643 202.465C60.7943 202.965 60.7093 203.515 60.7093 204.115C60.7093 204.715 60.7893 205.265 60.9493 205.765C61.1093 206.255 61.3493 206.68 61.6693 207.04C61.9993 207.4 62.3993 207.68 62.8693 207.88ZM74.5416 205.78C74.7216 205.28 74.8116 204.72 74.8116 204.1C74.8116 203.49 74.7216 202.935 74.5416 202.435C74.3616 201.925 74.1066 201.49 73.7766 201.13C73.4566 200.77 73.0716 200.495 72.6216 200.305C72.1716 200.105 71.6816 200.005 71.1516 200.005C70.6216 200.005 70.1316 200.105 69.6816 200.305C69.2316 200.495 68.8416 200.77 68.5116 201.13C68.1916 201.49 67.9416 201.925 67.7616 202.435C67.5816 202.935 67.4916 203.49 67.4916 204.1C67.4916 204.72 67.5816 205.28 67.7616 205.78C67.9416 206.28 68.1916 206.71 68.5116 207.07C68.8416 207.43 69.2316 207.71 69.6816 207.91C70.1316 208.1 70.6216 208.195 71.1516 208.195C71.6816 208.195 72.1716 208.1 72.6216 207.91C73.0716 207.71 73.4566 207.43 73.7766 207.07C74.1066 206.71 74.3616 206.28 74.5416 205.78ZM72.7566 202.015C73.1566 202.525 73.3566 203.22 73.3566 204.1C73.3566 204.98 73.1566 205.68 72.7566 206.2C72.3666 206.71 71.8316 206.965 71.1516 206.965C70.4716 206.965 69.9316 206.71 69.5316 206.2C69.1416 205.68 68.9466 204.98 68.9466 204.1C68.9466 203.22 69.1416 202.525 69.5316 202.015C69.9316 201.495 70.4716 201.235 71.1516 201.235C71.8316 201.235 72.3666 201.495 72.7566 202.015ZM78.0492 200.17C77.5192 200.26 77.0942 200.345 76.7742 200.425V208H78.1692V201.415C78.2192 201.405 78.2992 201.39 78.4092 201.37C78.5292 201.35 78.6592 201.335 78.7992 201.325C78.9492 201.305 79.1042 201.29 79.2642 201.28C79.4242 201.27 79.5792 201.265 79.7292 201.265C80.0992 201.265 80.4092 201.315 80.6592 201.415C80.9092 201.505 81.1092 201.655 81.2592 201.865C81.4092 202.075 81.5142 202.35 81.5742 202.69C81.6442 203.03 81.6792 203.44 81.6792 203.92V208H83.0742V203.62C83.0742 203.09 83.0242 202.605 82.9242 202.165C82.8242 201.725 82.6492 201.35 82.3992 201.04C82.1592 200.72 81.8342 200.475 81.4242 200.305C81.0142 200.125 80.4992 200.035 79.8792 200.035C79.1892 200.035 78.5792 200.08 78.0492 200.17ZM86.6625 200.17C86.1325 200.26 85.7075 200.345 85.3875 200.425V208H86.7825V201.415C86.8325 201.405 86.9125 201.39 87.0225 201.37C87.1425 201.35 87.2725 201.335 87.4125 201.325C87.5625 201.305 87.7175 201.29 87.8775 201.28C88.0375 201.27 88.1925 201.265 88.3425 201.265C88.7125 201.265 89.0225 201.315 89.2725 201.415C89.5225 201.505 89.7225 201.655 89.8725 201.865C90.0225 202.075 90.1275 202.35 90.1875 202.69C90.2575 203.03 90.2925 203.44 90.2925 203.92V208H91.6875V203.62C91.6875 203.09 91.6375 202.605 91.5375 202.165C91.4375 201.725 91.2625 201.35 91.0125 201.04C90.7725 200.72 90.4475 200.475 90.0375 200.305C89.6275 200.125 89.1125 200.035 88.4925 200.035C87.8025 200.035 87.1925 200.08 86.6625 200.17ZM93.8658 202.315C93.6658 202.825 93.5658 203.425 93.5658 204.115C93.5658 204.705 93.6408 205.25 93.7908 205.75C93.9508 206.24 94.1908 206.665 94.5108 207.025C94.8308 207.385 95.2358 207.67 95.7258 207.88C96.2258 208.08 96.8158 208.18 97.4958 208.18C98.0358 208.18 98.5158 208.13 98.9358 208.03C99.3658 207.93 99.6658 207.835 99.8358 207.745L99.6408 206.575C99.4708 206.655 99.2158 206.74 98.8758 206.83C98.5458 206.91 98.1358 206.95 97.6458 206.95C96.7758 206.95 96.1358 206.74 95.7258 206.32C95.3158 205.9 95.0808 205.285 95.0208 204.475H100.361C100.371 204.395 100.376 204.31 100.376 204.22V203.98C100.376 202.64 100.096 201.645 99.5358 200.995C98.9758 200.335 98.1708 200.005 97.1208 200.005C96.6708 200.005 96.2308 200.09 95.8008 200.26C95.3708 200.43 94.9908 200.685 94.6608 201.025C94.3308 201.365 94.0658 201.795 93.8658 202.315ZM98.4408 201.805C98.7708 202.205 98.9308 202.72 98.9208 203.35H95.0508C95.0808 203.08 95.1408 202.815 95.2308 202.555C95.3308 202.295 95.4658 202.065 95.6358 201.865C95.8058 201.665 96.0108 201.505 96.2508 201.385C96.5008 201.255 96.7858 201.19 97.1058 201.19C97.6758 201.19 98.1208 201.395 98.4408 201.805ZM104.105 207.88C104.585 208.08 105.14 208.18 105.77 208.18C105.97 208.18 106.175 208.165 106.385 208.135C106.605 208.115 106.81 208.085 107 208.045C107.19 208.015 107.36 207.98 107.51 207.94C107.66 207.89 107.775 207.84 107.855 207.79L107.66 206.62C107.49 206.7 107.255 206.775 106.955 206.845C106.655 206.915 106.32 206.95 105.95 206.95C105.49 206.95 105.1 206.885 104.78 206.755C104.46 206.615 104.195 206.42 103.985 206.17C103.785 205.92 103.635 205.62 103.535 205.27C103.445 204.92 103.4 204.535 103.4 204.115C103.4 203.175 103.605 202.46 104.015 201.97C104.435 201.48 105.035 201.235 105.815 201.235C106.125 201.235 106.415 201.265 106.685 201.325C106.965 201.385 107.21 201.465 107.42 201.565L107.735 200.38C107.415 200.25 107.08 200.155 106.73 200.095C106.38 200.035 106.03 200.005 105.68 200.005C105.11 200.005 104.59 200.11 104.12 200.32C103.66 200.52 103.27 200.805 102.95 201.175C102.63 201.535 102.38 201.965 102.2 202.465C102.03 202.965 101.945 203.515 101.945 204.115C101.945 204.715 102.025 205.265 102.185 205.765C102.345 206.255 102.585 206.68 102.905 207.04C103.235 207.4 103.635 207.68 104.105 207.88ZM113.612 200.2H110.657V197.785L109.262 198.025V204.985C109.262 205.505 109.302 205.965 109.382 206.365C109.472 206.755 109.622 207.085 109.832 207.355C110.042 207.625 110.317 207.83 110.657 207.97C111.007 208.1 111.447 208.165 111.977 208.165C112.427 208.165 112.827 208.11 113.177 208C113.527 207.9 113.772 207.815 113.912 207.745L113.642 206.59C113.584 206.613 113.498 206.647 113.385 206.691C113.305 206.722 113.211 206.758 113.102 206.8C112.852 206.89 112.517 206.935 112.097 206.935C111.857 206.935 111.647 206.905 111.467 206.845C111.287 206.785 111.137 206.685 111.017 206.545C110.897 206.395 110.807 206.195 110.747 205.945C110.687 205.685 110.657 205.36 110.657 204.97V201.37H113.612V200.2ZM123.599 202.015C124.049 202.505 124.274 203.205 124.274 204.115C124.274 204.515 124.234 204.89 124.154 205.24C124.074 205.58 123.944 205.88 123.764 206.14C123.584 206.39 123.349 206.59 123.059 206.74C122.779 206.88 122.439 206.95 122.039 206.95C121.659 206.95 121.309 206.885 120.989 206.755C120.669 206.625 120.424 206.49 120.254 206.35V201.43C120.394 201.39 120.579 201.355 120.809 201.325C121.049 201.295 121.379 201.28 121.799 201.28C122.549 201.28 123.149 201.525 123.599 202.015ZM125.489 205.75C125.649 205.25 125.729 204.705 125.729 204.115C125.729 203.485 125.634 202.92 125.444 202.42C125.264 201.91 125.004 201.48 124.664 201.13C124.324 200.78 123.914 200.51 123.434 200.32C122.954 200.13 122.414 200.035 121.814 200.035C121.164 200.035 120.589 200.085 120.089 200.185C119.599 200.275 119.189 200.36 118.859 200.44V210.775H120.254V207.655C120.424 207.765 120.679 207.88 121.019 208C121.369 208.12 121.769 208.18 122.219 208.18C122.779 208.18 123.274 208.08 123.704 207.88C124.144 207.68 124.514 207.4 124.814 207.04C125.114 206.68 125.339 206.25 125.489 205.75ZM127.557 202.315C127.357 202.825 127.257 203.425 127.257 204.115C127.257 204.705 127.332 205.25 127.482 205.75C127.642 206.24 127.882 206.665 128.202 207.025C128.522 207.385 128.927 207.67 129.417 207.88C129.917 208.08 130.507 208.18 131.187 208.18C131.727 208.18 132.207 208.13 132.627 208.03C133.057 207.93 133.357 207.835 133.527 207.745L133.332 206.575C133.162 206.655 132.907 206.74 132.567 206.83C132.237 206.91 131.827 206.95 131.337 206.95C130.467 206.95 129.827 206.74 129.417 206.32C129.007 205.9 128.772 205.285 128.712 204.475H134.052C134.062 204.395 134.067 204.31 134.067 204.22V203.98C134.067 202.64 133.787 201.645 133.227 200.995C132.667 200.335 131.862 200.005 130.812 200.005C130.362 200.005 129.922 200.09 129.492 200.26C129.062 200.43 128.682 200.685 128.352 201.025C128.022 201.365 127.757 201.795 127.557 202.315ZM132.132 201.805C132.462 202.205 132.622 202.72 132.612 203.35H128.742C128.772 203.08 128.832 202.815 128.922 202.555C129.022 202.295 129.157 202.065 129.327 201.865C129.497 201.665 129.702 201.505 129.942 201.385C130.192 201.255 130.477 201.19 130.797 201.19C131.367 201.19 131.812 201.395 132.132 201.805ZM141.921 207.07C142.251 206.71 142.506 206.28 142.686 205.78C142.866 205.28 142.956 204.72 142.956 204.1C142.956 203.49 142.866 202.935 142.686 202.435C142.506 201.925 142.251 201.49 141.921 201.13C141.601 200.77 141.216 200.495 140.766 200.305C140.316 200.105 139.826 200.005 139.296 200.005C138.766 200.005 138.276 200.105 137.826 200.305C137.376 200.495 136.986 200.77 136.656 201.13C136.336 201.49 136.086 201.925 135.906 202.435C135.726 202.935 135.636 203.49 135.636 204.1C135.636 204.72 135.726 205.28 135.906 205.78C136.086 206.28 136.336 206.71 136.656 207.07C136.986 207.43 137.376 207.71 137.826 207.91C138.276 208.1 138.766 208.195 139.296 208.195C139.826 208.195 140.316 208.1 140.766 207.91C141.216 207.71 141.601 207.43 141.921 207.07ZM140.901 202.015C141.301 202.525 141.501 203.22 141.501 204.1C141.501 204.98 141.301 205.68 140.901 206.2C140.511 206.71 139.976 206.965 139.296 206.965C138.616 206.965 138.076 206.71 137.676 206.2C137.286 205.68 137.091 204.98 137.091 204.1C137.091 203.22 137.286 202.525 137.676 202.015C138.076 201.495 138.616 201.235 139.296 201.235C139.976 201.235 140.511 201.495 140.901 202.015ZM149.659 202.015C150.109 202.505 150.334 203.205 150.334 204.115C150.334 204.515 150.294 204.89 150.214 205.24C150.134 205.58 150.004 205.88 149.824 206.14C149.644 206.39 149.409 206.59 149.119 206.74C148.839 206.88 148.499 206.95 148.099 206.95C147.719 206.95 147.369 206.885 147.049 206.755C146.729 206.625 146.484 206.49 146.314 206.35V201.43C146.454 201.39 146.639 201.355 146.869 201.325C147.109 201.295 147.439 201.28 147.859 201.28C148.609 201.28 149.209 201.525 149.659 202.015ZM151.549 205.75C151.709 205.25 151.789 204.705 151.789 204.115C151.789 203.485 151.694 202.92 151.504 202.42C151.324 201.91 151.064 201.48 150.724 201.13C150.384 200.78 149.974 200.51 149.494 200.32C149.014 200.13 148.474 200.035 147.874 200.035C147.224 200.035 146.649 200.085 146.149 200.185C145.659 200.275 145.249 200.36 144.919 200.44V210.775H146.314V207.655C146.484 207.765 146.739 207.88 147.079 208C147.429 208.12 147.829 208.18 148.279 208.18C148.839 208.18 149.334 208.08 149.764 207.88C150.204 207.68 150.574 207.4 150.874 207.04C151.174 206.68 151.399 206.25 151.549 205.75ZM154.262 207.595C154.622 207.945 155.232 208.13 156.092 208.15L156.287 206.98C156.067 206.95 155.882 206.915 155.732 206.875C155.582 206.825 155.462 206.755 155.372 206.665C155.282 206.575 155.217 206.455 155.177 206.305C155.137 206.155 155.117 205.965 155.117 205.735V196.36L153.722 196.6V205.96C153.722 206.7 153.902 207.245 154.262 207.595ZM157.718 202.315C157.518 202.825 157.418 203.425 157.418 204.115C157.418 204.705 157.493 205.25 157.643 205.75C157.803 206.24 158.043 206.665 158.363 207.025C158.683 207.385 159.088 207.67 159.578 207.88C160.078 208.08 160.668 208.18 161.348 208.18C161.888 208.18 162.368 208.13 162.788 208.03C163.218 207.93 163.518 207.835 163.688 207.745L163.493 206.575C163.323 206.655 163.068 206.74 162.728 206.83C162.398 206.91 161.988 206.95 161.498 206.95C160.628 206.95 159.988 206.74 159.578 206.32C159.168 205.9 158.933 205.285 158.873 204.475H164.213C164.223 204.395 164.228 204.31 164.228 204.22V203.98C164.228 202.64 163.948 201.645 163.388 200.995C162.828 200.335 162.023 200.005 160.973 200.005C160.523 200.005 160.083 200.09 159.653 200.26C159.223 200.43 158.843 200.685 158.513 201.025C158.183 201.365 157.918 201.795 157.718 202.315ZM162.293 201.805C162.623 202.205 162.783 202.72 162.773 203.35H158.903C158.933 203.08 158.993 202.815 159.083 202.555C159.183 202.295 159.318 202.065 159.488 201.865C159.658 201.665 159.863 201.505 160.103 201.385C160.353 201.255 160.638 201.19 160.958 201.19C161.528 201.19 161.973 201.395 162.293 201.805Z" fill="black"/>
</svg>
