<svg width="199" height="40" viewBox="0 0 199 40" fill="none" xmlns="http://www.w3.org/2000/svg">
<path d="M32.3 4.35C31.0333 8.01667 29.8167 11.4167 28.65 14.55C27.5167 17.65 26.4 20.6 25.3 23.4C24.2 26.2 23.1 28.8833 22 31.45C20.9333 33.9833 19.8333 36.5 18.7 39H14.15C13.0167 36.5 11.9 33.9833 10.8 31.45C9.73333 28.8833 8.63333 26.2 7.5 23.4C6.4 20.6 5.26667 17.65 4.1 14.55C2.93333 11.4167 1.73333 8.01667 0.5 4.35H5.85C7.65 9.61667 9.41667 14.6833 11.15 19.55C12.8833 24.4167 14.6667 28.9833 16.5 33.25C18.3333 29.0167 20.1167 24.4667 21.85 19.6C23.5833 14.7 25.3333 9.61667 27.1 4.35H32.3ZM41.4625 39H36.8125V13H41.4625V39ZM39.1125 8.3C38.2792 8.3 37.5625 8.03333 36.9625 7.5C36.3958 6.93333 36.1125 6.18333 36.1125 5.25C36.1125 4.31667 36.3958 3.58333 36.9625 3.05C37.5625 2.48333 38.2792 2.2 39.1125 2.2C39.9458 2.2 40.6458 2.48333 41.2125 3.05C41.8125 3.58333 42.1125 4.31667 42.1125 5.25C42.1125 6.18333 41.8125 6.93333 41.2125 7.5C40.6458 8.03333 39.9458 8.3 39.1125 8.3ZM54.109 14.15C54.6757 13.7833 55.5257 13.4 56.659 13C57.8257 12.6 59.159 12.4 60.659 12.4C62.5257 12.4 64.1757 12.7333 65.609 13.4C67.0757 14.0667 68.309 15 69.309 16.2C70.309 17.4 71.059 18.8333 71.559 20.5C72.0923 22.1667 72.359 24 72.359 26C72.359 28.1 72.0423 30 71.409 31.7C70.809 33.3667 69.9423 34.7833 68.809 35.95C67.6757 37.1167 66.309 38.0167 64.709 38.65C63.109 39.2833 61.309 39.6 59.309 39.6C57.1423 39.6 55.2257 39.45 53.559 39.15C51.8923 38.85 50.5257 38.55 49.459 38.25V0.999997L54.109 0.199999V14.15ZM54.109 34.95C54.5757 35.0833 55.2257 35.2167 56.059 35.35C56.9257 35.45 57.9923 35.5 59.259 35.5C61.759 35.5 63.759 34.6833 65.259 33.05C66.759 31.3833 67.509 29.0333 67.509 26C67.509 24.6667 67.3757 23.4167 67.109 22.25C66.8423 21.0833 66.409 20.0833 65.809 19.25C65.209 18.3833 64.4257 17.7167 63.459 17.25C62.5257 16.75 61.3923 16.5 60.059 16.5C58.7923 16.5 57.6257 16.7167 56.559 17.15C55.4923 17.5833 54.6757 18.0333 54.109 18.5V34.95ZM77.4523 26.05C77.4523 23.75 77.7857 21.75 78.4523 20.05C79.119 18.3167 80.0023 16.8833 81.1023 15.75C82.2023 14.6167 83.469 13.7667 84.9023 13.2C86.3357 12.6333 87.8023 12.35 89.3023 12.35C92.8023 12.35 95.4857 13.45 97.3523 15.65C99.219 17.8167 100.152 21.1333 100.152 25.6C100.152 25.8 100.152 26.0667 100.152 26.4C100.152 26.7 100.136 26.9833 100.102 27.25H82.3023C82.5023 29.95 83.2857 32 84.6523 33.4C86.019 34.8 88.1523 35.5 91.0523 35.5C92.6857 35.5 94.0523 35.3667 95.1523 35.1C96.2857 34.8 97.1357 34.5167 97.7023 34.25L98.3523 38.15C97.7857 38.45 96.7857 38.7667 95.3523 39.1C93.9523 39.4333 92.3523 39.6 90.5523 39.6C88.2857 39.6 86.319 39.2667 84.6523 38.6C83.019 37.9 81.669 36.95 80.6023 35.75C79.5357 34.55 78.7357 33.1333 78.2023 31.5C77.7023 29.8333 77.4523 28.0167 77.4523 26.05ZM95.3023 23.5C95.3357 21.4 94.8023 19.6833 93.7023 18.35C92.6357 16.9833 91.1523 16.3 89.2523 16.3C88.1857 16.3 87.2357 16.5167 86.4023 16.95C85.6023 17.35 84.919 17.8833 84.3523 18.55C83.7857 19.2167 83.3357 19.9833 83.0023 20.85C82.7023 21.7167 82.5023 22.6 82.4023 23.5H95.3023ZM128.082 39C127.149 36.6 126.149 33.8667 125.082 30.8C124.049 27.7 123.099 24.4833 122.232 21.15C121.365 24.4833 120.415 27.7 119.382 30.8C118.349 33.8667 117.365 36.6 116.432 39H112.382C110.849 35.5667 109.349 31.65 107.882 27.25C106.415 22.85 105.032 18.1 103.732 13H108.732C109.065 14.5667 109.465 16.2667 109.932 18.1C110.399 19.9333 110.882 21.7667 111.382 23.6C111.915 25.4333 112.465 27.2 113.032 28.9C113.599 30.6 114.132 32.0833 114.632 33.35C115.199 31.7833 115.749 30.1333 116.282 28.4C116.849 26.6333 117.382 24.8667 117.882 23.1C118.382 21.3 118.849 19.55 119.282 17.85C119.749 16.1167 120.149 14.5 120.482 13H124.332C124.632 14.5 124.999 16.1167 125.432 17.85C125.865 19.55 126.332 21.3 126.832 23.1C127.332 24.8667 127.849 26.6333 128.382 28.4C128.949 30.1333 129.515 31.7833 130.082 33.35C130.582 32.0833 131.099 30.6 131.632 28.9C132.199 27.2 132.749 25.4333 133.282 23.6C133.815 21.7667 134.315 19.9333 134.782 18.1C135.249 16.2667 135.649 14.5667 135.982 13H140.782C139.482 18.1 138.099 22.85 136.632 27.25C135.165 31.65 133.665 35.5667 132.132 39H128.082ZM150.349 39H145.699V13H150.349V39ZM147.999 8.3C147.166 8.3 146.449 8.03333 145.849 7.5C145.283 6.93333 144.999 6.18333 144.999 5.25C144.999 4.31667 145.283 3.58333 145.849 3.05C146.449 2.48333 147.166 2.2 147.999 2.2C148.833 2.2 149.533 2.48333 150.099 3.05C150.699 3.58333 150.999 4.31667 150.999 5.25C150.999 6.18333 150.699 6.93333 150.099 7.5C149.533 8.03333 148.833 8.3 147.999 8.3ZM167.946 12.45C168.346 12.45 168.796 12.4833 169.296 12.55C169.829 12.5833 170.346 12.65 170.846 12.75C171.346 12.8167 171.796 12.9 172.196 13C172.629 13.0667 172.946 13.1333 173.146 13.2L172.346 17.25C171.979 17.1167 171.362 16.9667 170.496 16.8C169.662 16.6 168.579 16.5 167.246 16.5C166.379 16.5 165.512 16.6 164.646 16.8C163.812 16.9667 163.262 17.0833 162.996 17.15V39H158.346V14.1C159.446 13.7 160.812 13.3333 162.446 13C164.079 12.6333 165.912 12.45 167.946 12.45ZM176.183 26.05C176.183 23.75 176.516 21.75 177.183 20.05C177.849 18.3167 178.733 16.8833 179.833 15.75C180.933 14.6167 182.199 13.7667 183.633 13.2C185.066 12.6333 186.533 12.35 188.033 12.35C191.533 12.35 194.216 13.45 196.083 15.65C197.949 17.8167 198.883 21.1333 198.883 25.6C198.883 25.8 198.883 26.0667 198.883 26.4C198.883 26.7 198.866 26.9833 198.833 27.25H181.033C181.233 29.95 182.016 32 183.383 33.4C184.749 34.8 186.883 35.5 189.783 35.5C191.416 35.5 192.783 35.3667 193.883 35.1C195.016 34.8 195.866 34.5167 196.433 34.25L197.083 38.15C196.516 38.45 195.516 38.7667 194.083 39.1C192.683 39.4333 191.083 39.6 189.283 39.6C187.016 39.6 185.049 39.2667 183.383 38.6C181.749 37.9 180.399 36.95 179.333 35.75C178.266 34.55 177.466 33.1333 176.933 31.5C176.433 29.8333 176.183 28.0167 176.183 26.05ZM194.033 23.5C194.066 21.4 193.533 19.6833 192.433 18.35C191.366 16.9833 189.883 16.3 187.983 16.3C186.916 16.3 185.966 16.5167 185.133 16.95C184.333 17.35 183.649 17.8833 183.083 18.55C182.516 19.2167 182.066 19.9833 181.733 20.85C181.433 21.7167 181.233 22.6 181.133 23.5H194.033Z" fill="black"/>
</svg>
